<svg xmlns="http://www.w3.org/2000/svg" xmlns:xlink="http://www.w3.org/1999/xlink" viewBox="0 0 18.9 14.2" xmlns:v="https://vecta.io/nano"><defs><path id="A" d="M.3 0h18.3v14.2H.3z"/></defs><clipPath id="B"><use xlink:href="#A"/></clipPath><g clip-path="url(#B)"><path d="M15.8 1.3C14.6.8 13.4.4 12.1.1H12c-.2.3-.3.7-.5 1-1.4-.2-2.8-.2-4.2 0-.1-.3-.3-.7-.5-1h-.1C5.4.3 4.1.7 3 1.3h0C.6 4.8 0 8.3.3 11.7h0c1.6 1.1 3.1 1.8 4.6 2.3H5c.4-.5.7-1 .9-1.5v-.1c-.5-.2-1-.4-1.4-.7v-.1c.1-.1.2-.1.3-.2h.1c3 1.4 6.3 1.4 9.2 0h.1c.1.1.2.2.3.2v.1c-.5.3-.9.5-1.4.7v.1L14 14h.1c1.5-.5 3-1.2 4.6-2.3h0c.2-3.9-.8-7.4-2.9-10.4h0zM6.4 9.6c-.9 0-1.6-.8-1.6-1.8S5.5 6 6.4 6s1.7.8 1.6 1.8c0 1-.7 1.8-1.6 1.8zm6.1 0c-.9 0-1.6-.8-1.6-1.8S11.6 6 12.5 6s1.7.8 1.6 1.8c0 1-.7 1.8-1.6 1.8z" fill="#2f2f2f"/></g></svg>