<?xml version="1.0" encoding="UTF-8"?>
<svg width="347px" height="356px" viewBox="0 0 347 356" version="1.1" xmlns="http://www.w3.org/2000/svg" xmlns:xlink="http://www.w3.org/1999/xlink">
    <title>Artboard</title>
    <g id="Artboard" stroke="none" stroke-width="1" fill="none" fill-rule="evenodd">
        <g id="p2" transform="translate(9.760000, 0.000000)">
            <g id="freepik--Padlocks--inject-154" transform="translate(0.429944, 0.000000)" fill-rule="nonzero">
                <path d="M176.180056,52.5703185 L150.830056,52.5703185 C149.668629,52.5703185 148.725561,51.6317322 148.720056,50.4703185 L148.720056,38.5303185 C148.720056,30.3675499 155.337288,23.7503185 163.500056,23.7503185 C171.662825,23.7503185 178.280056,30.3675499 178.280056,38.5303185 L178.280056,50.4703185 C178.280056,51.6301165 177.339854,52.5703185 176.180056,52.5703185 L176.180056,52.5703185 Z M152.940056,48.3603185 L174.070056,48.3603185 L174.070056,38.5303185 C174.18858,34.678299 172.201227,31.0670609 168.883633,29.1060213 C165.56604,27.1449817 161.444073,27.1449817 158.126479,29.1060213 C154.808886,31.0670609 152.821532,34.678299 152.940056,38.5303185 L152.940056,48.3603185 Z" id="Shape" stroke="#263238" fill="#92E3A9" stroke-linecap="round" stroke-linejoin="round"></path>
                <rect id="Rectangle" stroke="#263238" fill="#263238" stroke-linecap="round" stroke-linejoin="round" x="147.160056" y="46.8203185" width="32.27" height="27.27"></rect>
                <path d="M166.650084,58.1403185 C166.656906,56.415928 165.413537,54.9404587 163.712936,54.6549266 C162.012336,54.3693944 160.355267,55.3578777 159.798565,56.9899476 C159.241862,58.6220174 159.949454,60.4170916 161.470056,61.2303185 L160.880056,67.4303185 L165.400056,67.4303185 L164.810056,61.2303185 C165.946131,60.6182816 166.653262,59.4307621 166.650084,58.1403185 L166.650084,58.1403185 Z" id="Path" stroke="#263238" fill="#92E3A9"></path>
                <path d="M294.170056,187.180319 L268.820056,187.180319 C268.261365,187.180319 267.7257,186.957703 267.331585,186.561711 C266.93747,186.16572 266.717396,185.629004 266.720056,185.070319 L266.720056,173.140319 C266.580333,167.770074 269.365474,162.746873 273.994352,160.020605 C278.623229,157.294336 284.366883,157.294336 288.995761,160.020605 C293.624638,162.746873 296.409779,167.770074 296.270056,173.140319 L296.270056,185.070319 C296.272717,185.629004 296.052642,186.16572 295.658527,186.561711 C295.264412,186.957703 294.728748,187.180319 294.170056,187.180319 Z M270.930056,182.970319 L292.060056,182.970319 L292.060056,173.140319 C292.17858,169.288299 290.191227,165.677061 286.873633,163.716021 C283.55604,161.754982 279.434073,161.754982 276.116479,163.716021 C272.798886,165.677061 270.811532,169.288299 270.930056,173.140319 L270.930056,182.970319 Z" id="Shape" stroke="#263238" fill="#92E3A9" stroke-linecap="round" stroke-linejoin="round"></path>
                <rect id="Rectangle" stroke="#263238" fill="#263238" stroke-linecap="round" stroke-linejoin="round" x="265.150056" y="181.430319" width="32.27" height="27.27"></rect>
                <path d="M284.640084,192.800319 C284.646906,191.075928 283.403537,189.600459 281.702936,189.314927 C280.002336,189.029394 278.345267,190.017878 277.788565,191.649948 C277.231862,193.282017 277.939454,195.077092 279.460056,195.890319 L278.870056,202.080319 L283.400056,202.080319 L282.800056,195.800319 C283.906626,195.202249 284.608571,194.057773 284.640084,192.800319 L284.640084,192.800319 Z" id="Path" stroke="#263238" fill="#92E3A9"></path>
                <path d="M56.7700562,187.180342 L31.4000562,187.180342 C30.8396336,187.182994 30.3013911,186.96155 29.905108,186.565267 C29.5088249,186.168984 29.2873811,185.630741 29.2900322,185.070319 L29.2900322,173.140319 C29.2900322,164.97755 35.9072878,158.360319 44.0700562,158.360319 C52.2328245,158.360319 58.8500809,164.97755 58.8500809,173.140319 L58.8500809,185.070319 C58.8556129,186.226246 57.925945,187.169323 56.7700562,187.180342 Z M33.5300562,182.970319 L54.6700562,182.970319 L54.6700562,173.140319 C54.6700562,167.302669 49.9377058,162.570319 44.1000562,162.570319 C38.2624065,162.570319 33.5300562,167.302669 33.5300562,173.140319 L33.5300562,182.970319 Z" id="Shape" stroke="#263238" fill="#92E3A9" stroke-linecap="round" stroke-linejoin="round"></path>
                <rect id="Rectangle" stroke="#263238" fill="#263238" stroke-linecap="round" stroke-linejoin="round" x="27.7600562" y="181.430319" width="32.27" height="27.27"></rect>
                <path d="M47.2500669,192.800319 C47.2542753,191.078024 46.0116284,189.605602 44.3131201,189.32032 C42.6146119,189.035038 40.9591067,190.020685 40.4004137,191.64985 C39.8417206,193.279015 40.5439319,195.0732 42.0600562,195.890319 L41.4700562,202.080319 L45.9900562,202.080319 L45.4000562,195.800319 C46.5119741,195.206438 47.2186332,194.060504 47.2500669,192.800319 L47.2500669,192.800319 Z" id="Path" stroke="#263238" fill="#92E3A9"></path>
                <path d="M313.660056,167.800319 C309.660056,171.980319 307.280056,178.380319 307.320056,184.890319 C307.360056,191.400319 309.870056,197.890319 314.020056,202.030319 C314.68004,202.690291 315.750073,202.690291 316.410056,202.030319 C316.730243,201.713906 316.907253,201.280412 316.900056,200.830319 C316.896864,200.38519 316.721223,199.958634 316.410056,199.640319 C312.870056,196.130319 310.740056,190.640319 310.700056,184.880319 C310.660056,179.120319 312.700056,173.710319 316.100056,170.150319 C316.518057,169.714455 316.671775,169.088699 316.503306,168.508767 C316.334837,167.928836 315.869776,167.482835 315.283306,167.338767 C314.696836,167.1947 314.078057,167.374454 313.660056,167.810319 L313.660056,167.800319 Z" id="Path" fill="#92E3A9"></path>
                <path d="M318.590056,172.350319 C312.795996,179.688338 312.891702,190.070361 318.820056,197.300319 C319.43173,198.007229 320.499402,198.08764 321.210056,197.480319 C321.586496,197.154356 321.798938,196.678194 321.790056,196.180319 C321.791669,195.7838 321.649567,195.400124 321.390056,195.100319 C316.528746,189.118816 316.449902,180.57047 321.200056,174.500319 C321.584117,174.034087 321.690272,173.398377 321.478533,172.832655 C321.266795,172.266933 320.769332,171.857146 320.173533,171.757655 C319.577735,171.658165 318.974117,171.884087 318.590056,172.350319 L318.590056,172.350319 Z" id="Path" fill="#92E3A9"></path>
                <path d="M323.460056,176.960319 C319.706174,181.612353 319.83692,188.28882 323.770056,192.790319 C324.225398,193.349328 324.985241,193.557904 325.662163,193.309699 C326.339084,193.061495 326.783998,192.411175 326.770056,191.690319 C326.771067,191.296915 326.628887,190.916585 326.370056,190.620319 C323.489883,187.328953 323.392848,182.443454 326.140056,179.040319 C326.664982,178.304018 326.517316,177.284977 325.804981,176.727963 C325.092646,176.170949 324.068066,176.273347 323.480056,176.960319 L323.460056,176.960319 Z" id="Path" fill="#92E3A9"></path>
                <path d="M13.0900562,167.800319 C17.0900562,171.980319 19.4800562,178.380319 19.4300562,184.890319 C19.3800562,191.400319 16.8800562,197.890319 12.7300562,202.030319 C12.3013375,202.455465 11.6783723,202.619597 11.0958256,202.460889 C10.5132789,202.302181 10.0596534,201.844743 9.90582549,201.260889 C9.75199758,200.677034 9.92133736,200.055465 10.3500562,199.630319 C13.8800562,196.120319 16.0100562,190.630319 16.0500562,184.870319 C16.0900562,179.110319 14.0500562,173.700319 10.6500562,170.140319 C9.99555161,169.47808 9.99555161,168.412557 10.6500562,167.750319 C10.974164,167.421576 11.4192682,167.240689 11.8808179,167.250147 C12.3423676,167.259605 12.7796878,167.458574 13.0900562,167.800319 L13.0900562,167.800319 Z" id="Path" fill="#92E3A9"></path>
                <path d="M8.17005617,172.350319 C13.9650219,179.689381 13.8651289,190.07409 7.93005617,197.300319 C7.32192989,198.00603 6.25740424,198.08654 5.55005617,197.480319 C5.17434834,197.152919 4.95910855,196.678662 4.96005305,196.180319 C4.96301187,195.782842 5.10849402,195.399621 5.37005617,195.100319 C10.231366,189.118816 10.31021,180.57047 5.56005617,174.500319 C4.96635006,173.779587 5.06932457,172.714025 5.79005617,172.120319 C6.51078776,171.526612 7.57635006,171.629587 8.17005617,172.350319 L8.17005617,172.350319 Z" id="Path" fill="#92E3A9"></path>
                <path d="M3.30005617,176.960319 C7.0485241,181.619361 6.91363304,188.296469 2.98005617,192.800319 C2.69374203,193.145992 2.28100837,193.362719 1.83389605,193.402171 C1.38678373,193.441622 0.942476482,193.300515 0.600056166,193.010319 C0.215742662,192.684192 -0.00403671752,192.204341 1.42108547e-14,191.700319 C0.00346722492,191.307721 0.145091159,190.928877 0.400056166,190.630319 C3.30775035,187.350983 3.40938083,182.447313 0.640056166,179.050319 C0.362053078,178.69842 0.236285031,178.249977 0.290753928,177.804834 C0.345222824,177.359692 0.575406845,176.954804 0.930056166,176.680319 C1.66382377,176.110282 2.71932829,176.234983 3.30005617,176.960319 L3.30005617,176.960319 Z" id="Path" fill="#92E3A9"></path>
                <path d="M180.480056,13.1103185 C176.290056,17.1103185 169.900056,19.4903185 163.380056,19.4503185 C156.860056,19.4103185 150.400056,16.9003185 146.250056,12.8003185 C145.590084,12.1403349 145.590084,11.0703022 146.250056,10.4103185 C146.573326,10.0943228 147.008003,9.91829663 147.460056,9.92030129 C147.904925,9.92004262 148.330818,10.100506 148.640056,10.4203185 C152.150056,13.9503185 157.640056,16.0803185 163.400056,16.1203185 C168.819703,16.2504549 174.087101,14.3207434 178.140056,10.7203185 C178.813844,10.0741455 179.883883,10.0965313 180.530056,10.7703186 C181.176229,11.444106 181.153843,12.5141453 180.480056,13.1603185 L180.480056,13.1103185 Z" id="Path" fill="#92E3A9"></path>
                <path d="M175.900056,8.18031851 C168.565941,13.9857825 158.1759,13.8900026 150.950056,7.95031851 C150.45574,7.56828647 150.212504,6.94471537 150.317581,6.3288781 C150.422658,5.71304083 150.858906,5.20540669 151.451935,5.00890269 C152.044964,4.81239869 152.698024,4.95908301 153.150056,5.39031851 C159.131559,10.2516284 167.679904,10.3304724 173.750056,5.58031851 C174.471939,5.05360107 175.479105,5.17990475 176.048573,5.86856413 C176.618041,6.55722351 176.552964,7.57018979 175.900056,8.18031851 L175.900056,8.18031851 Z" id="Path" fill="#92E3A9"></path>
                <path d="M171.280056,3.32031851 C166.622821,7.06317827 159.952227,6.92833366 155.450056,3.00031851 C154.891047,2.5449764 154.682471,1.78513358 154.930675,1.10821216 C155.17888,0.431290733 155.8292,-0.0136234923 156.550056,0.000318513024 C156.946575,-0.00129457938 157.33025,0.140807504 157.630056,0.400318513 C160.91023,3.29942552 165.807257,3.39677351 169.200056,0.630318513 C169.937356,0.0559423732 171.00068,0.188018372 171.575056,0.925318513 C172.149432,1.66261865 172.017356,2.72594237 171.280056,3.30031851 L171.280056,3.32031851 Z" id="Path" fill="#92E3A9"></path>
            </g>
            <g id="freepik--Device--inject-154" transform="translate(0.000000, 92.180319)">
                <ellipse id="Oval" fill="#92E3A9" fill-rule="nonzero" cx="161.21" cy="213.19" rx="161.21" ry="50.4"></ellipse>
                <ellipse id="Oval" fill="#FFFFFF" fill-rule="nonzero" opacity="0.5" cx="161.21" cy="213.19" rx="161.21" ry="50.4"></ellipse>
                <ellipse id="Oval" stroke="#263238" fill="#263238" fill-rule="nonzero" cx="162.83" cy="207.84" rx="146.88" ry="44.61"></ellipse>
                <ellipse id="Oval" stroke="#263238" fill="#FFFFFF" fill-rule="nonzero" cx="162.83" cy="196.94" rx="130.96" ry="37.83"></ellipse>
                <ellipse id="Oval" stroke="#263238" fill="#FFFFFF" fill-rule="nonzero" cx="162.83" cy="195.69" rx="119.44" ry="33.26"></ellipse>
                <ellipse id="Oval" stroke="#263238" fill="#FFFFFF" fill-rule="nonzero" cx="162.83" cy="201.09" rx="117.86" ry="27.85"></ellipse>
                <path d="M50.37,224.09 C50.5953812,225.778659 49.7478065,227.429593 48.2442399,228.230626 C46.7406734,229.031658 44.8976725,228.814142 43.6219007,227.685084 C42.3461289,226.556026 41.9061843,224.753135 42.5184975,223.163343 C43.1308107,221.573552 44.6664666,220.53157 46.37,220.55 C48.4457502,220.441317 50.2255414,222.016432 50.37,224.09 L50.37,224.09 Z" id="Path" stroke="#263238" fill="#FFFFFF" fill-rule="nonzero"></path>
                <ellipse id="Oval" stroke="#263238" fill="#FFFFFF" fill-rule="nonzero" cx="104.52" cy="239.54" rx="4.04" ry="3.54"></ellipse>
                <path d="M177.83,242.07 C178.055381,243.758659 177.207806,245.409593 175.70424,246.210626 C174.200673,247.011658 172.357672,246.794142 171.081901,245.665084 C169.806129,244.536026 169.366184,242.733135 169.978498,241.143343 C170.590811,239.553552 172.126467,238.51157 173.83,238.53 C175.90575,238.421317 177.685541,239.996432 177.83,242.07 L177.83,242.07 Z" id="Path" stroke="#263238" fill="#FFFFFF" fill-rule="nonzero"></path>
                <ellipse id="Oval" stroke="#263238" fill="#FFFFFF" fill-rule="nonzero" cx="242.48" cy="236" rx="4.04" ry="3.54"></ellipse>
                <ellipse id="Oval" stroke="#263238" fill="#FFFFFF" fill-rule="nonzero" cx="286.95" cy="219.83" rx="4.04" ry="3.54"></ellipse>
                <path d="M305.05,200.35 C304.38,201.63 302.05,201.73 299.83,200.58 C297.61,199.43 296.36,197.45 297.03,196.17 C297.7,194.89 300.03,194.79 302.25,195.94 C304.47,197.09 305.72,199.07 305.05,200.35 Z" id="Path" stroke="#263238" fill="#FFFFFF" fill-rule="nonzero"></path>
                <path d="M20.61,200.35 C21.28,201.63 23.61,201.73 25.83,200.58 C28.05,199.43 29.3,197.45 28.63,196.17 C27.96,194.89 25.63,194.79 23.41,195.94 C21.19,197.09 19.94,199.07 20.61,200.35 Z" id="Path" stroke="#263238" fill="#FFFFFF" fill-rule="nonzero"></path>
                <line x1="43.2" y1="188.44" x2="43.2" y2="154.32" id="Path" stroke="#263238"></line>
                <line x1="65.24" y1="213.32" x2="65.24" y2="196.26" id="Path" stroke="#263238"></line>
                <line x1="65.24" y1="191.99" x2="65.24" y2="157.87" id="Path" stroke="#263238"></line>
                <line x1="262.15" y1="214.74" x2="262.15" y2="180.62" id="Path" stroke="#263238"></line>
                <line x1="241.43" y1="220.66" x2="241.43" y2="145.63" id="Path" stroke="#263238"></line>
                <line x1="155.52" y1="228.25" x2="155.52" y2="212.61" id="Path" stroke="#263238"></line>
                <line x1="89.93" y1="222.58" x2="89.93" y2="184.33" id="Path" stroke="#263238"></line>
                <line x1="206.52" y1="227.24" x2="206.52" y2="219.51" id="Path" stroke="#263238"></line>
                <line x1="206.52" y1="217.1" x2="206.52" y2="201.32" id="Path" stroke="#263238"></line>
                <line x1="155.52" y1="205.5" x2="155.52" y2="196.97" id="Path" stroke="#263238"></line>
                <line x1="262.15" y1="172.8" x2="262.15" y2="157.16" id="Path" stroke="#263238"></line>
                <line x1="282.06" y1="199.81" x2="282.06" y2="123.75" id="Path" stroke="#263238"></line>
                <line x1="43.2" y1="149.34" x2="43.2" y2="130.88" id="Path" stroke="#263238"></line>
                <rect id="Rectangle" stroke="#263238" fill="#263238" fill-rule="nonzero" x="223.73" y="93.26" width="4.75" height="12.56"></rect>
                <rect id="Rectangle" stroke="#263238" fill="#263238" fill-rule="nonzero" x="100.27" y="0" width="125.03" height="27.08"></rect>
                <rect id="Rectangle" stroke="#263238" fill="#263238" fill-rule="nonzero" x="223.73" y="167.36" width="4.75" height="12.56"></rect>
                <rect id="Rectangle" stroke="#263238" fill="#263238" fill-rule="nonzero" x="96.66" y="167.36" width="4.75" height="12.56"></rect>
                <rect id="Rectangle" stroke="#263238" fill="#263238" fill-rule="nonzero" x="95.97" y="20.59" width="4.75" height="12.56"></rect>
                <rect id="Rectangle" stroke="#263238" fill="#263238" fill-rule="nonzero" x="95.97" y="130.78" width="4.75" height="12.56"></rect>
                <rect id="Rectangle" stroke="#263238" fill="#263238" fill-rule="nonzero" x="95.97" y="93.18" width="4.75" height="12.56"></rect>
                <rect id="Rectangle" stroke="#263238" fill="#263238" fill-rule="nonzero" x="224.95" y="20.59" width="4.75" height="12.56"></rect>
                <rect id="Rectangle" stroke="#263238" fill="#263238" fill-rule="nonzero" x="224.95" y="130.78" width="4.75" height="12.56"></rect>
                <rect id="Rectangle" stroke="#263238" fill="#263238" fill-rule="nonzero" x="95.97" y="56.82" width="4.75" height="12.56"></rect>
                <rect id="Rectangle" stroke="#263238" fill="#263238" fill-rule="nonzero" x="224.95" y="56.82" width="4.75" height="12.56"></rect>
                <rect id="Rectangle" stroke="#263238" fill="#FFFFFF" fill-rule="nonzero" x="100.27" y="13.64" width="125.03" height="27.08"></rect>
                <rect id="Rectangle" stroke="#263238" fill="#92E3A9" fill-rule="nonzero" x="126.72" y="20.55" width="7.14" height="13.26"></rect>
                <rect id="Rectangle" stroke="#263238" fill="#92E3A9" fill-rule="nonzero" x="115.77" y="20.55" width="7.14" height="13.26"></rect>
                <rect id="Rectangle" stroke="#263238" fill="#92E3A9" fill-rule="nonzero" x="106.28" y="20.55" width="5.69" height="13.26"></rect>
                <rect id="Rectangle" stroke="#263238" fill="#92E3A9" fill-rule="nonzero" x="137.67" y="20.55" width="7.14" height="13.26"></rect>
                <rect id="Rectangle" stroke="#263238" fill="#92E3A9" fill-rule="nonzero" x="148.61" y="20.55" width="43.83" height="13.26"></rect>
                <circle id="Oval" stroke="#263238" fill="#FFFFFF" fill-rule="nonzero" cx="204.12" cy="26.6" r="3.34"></circle>
                <path d="M220.55,26.62 C220.55,25.2641428 219.732706,24.0419833 218.479669,23.5240584 C217.226632,23.0061334 215.784956,23.2945828 214.827654,24.2547507 C213.870352,25.2149185 213.586214,26.6574504 214.107883,27.9089338 C214.629552,29.1604171 215.854149,29.9740473 217.21,29.970015 C219.056247,29.9644888 220.55,28.4662557 220.55,26.62 L220.55,26.62 Z" id="Path" stroke="#263238" fill="#92E3A9" fill-rule="nonzero"></path>
                <circle id="Oval" stroke="#263238" fill="#FFFFFF" fill-rule="nonzero" cx="184.62" cy="26.6" r="3.34"></circle>
                <rect id="Rectangle" stroke="#263238" fill="#263238" fill-rule="nonzero" x="105.01" y="40.72" width="115.54" height="9.27"></rect>
                <rect id="Rectangle" stroke="#263238" fill="#FFFFFF" fill-rule="nonzero" x="100.27" y="50" width="125.03" height="27.08"></rect>
                <rect id="Rectangle" stroke="#263238" fill="#92E3A9" fill-rule="nonzero" x="115.77" y="56.91" width="7.14" height="13.26"></rect>
                <rect id="Rectangle" stroke="#263238" fill="#92E3A9" fill-rule="nonzero" x="137.67" y="56.91" width="7.14" height="13.26"></rect>
                <rect id="Rectangle" stroke="#263238" fill="#92E3A9" fill-rule="nonzero" x="126.72" y="56.91" width="7.14" height="13.26"></rect>
                <rect id="Rectangle" stroke="#263238" fill="#92E3A9" fill-rule="nonzero" x="106.28" y="56.91" width="5.69" height="13.26"></rect>
                <rect id="Rectangle" stroke="#263238" fill="#92E3A9" fill-rule="nonzero" x="148.61" y="56.91" width="43.83" height="13.26"></rect>
                <circle id="Oval" stroke="#263238" fill="#92E3A9" fill-rule="nonzero" cx="204.12" cy="62.96" r="3.34"></circle>
                <path d="M220.550015,62.96 C220.554044,61.60324 219.739329,60.3780119 218.486615,59.8569325 C217.233902,59.335853 215.790586,59.6218287 214.831207,60.5812072 C213.871829,61.5405856 213.585853,62.9839023 214.106932,64.2366155 C214.628012,65.4893287 215.85324,66.304044 217.21,66.300015 C218.095823,66.300015 218.945365,65.9481082 219.571737,65.3217366 C220.198108,64.6953651 220.550015,63.8458231 220.550015,62.96 Z" id="Path" stroke="#263238" fill="#FFFFFF" fill-rule="nonzero"></path>
                <circle id="Oval" stroke="#263238" fill="#FFFFFF" fill-rule="nonzero" cx="184.62" cy="62.96" r="3.34"></circle>
                <rect id="Rectangle" stroke="#263238" fill="#263238" fill-rule="nonzero" x="105.01" y="77.08" width="115.54" height="9.27"></rect>
                <rect id="Rectangle" stroke="#263238" fill="#FFFFFF" fill-rule="nonzero" x="100.27" y="86.35" width="125.03" height="27.08"></rect>
                <rect id="Rectangle" stroke="#263238" fill="#92E3A9" fill-rule="nonzero" x="126.72" y="93.26" width="7.14" height="13.26"></rect>
                <rect id="Rectangle" stroke="#263238" fill="#92E3A9" fill-rule="nonzero" x="137.67" y="93.26" width="7.14" height="13.26"></rect>
                <rect id="Rectangle" stroke="#263238" fill="#92E3A9" fill-rule="nonzero" x="115.77" y="93.26" width="7.14" height="13.26"></rect>
                <rect id="Rectangle" stroke="#263238" fill="#92E3A9" fill-rule="nonzero" x="148.61" y="93.26" width="43.83" height="13.26"></rect>
                <rect id="Rectangle" stroke="#263238" fill="#92E3A9" fill-rule="nonzero" x="106.28" y="93.26" width="5.69" height="13.26"></rect>
                <circle id="Oval" stroke="#263238" fill="#FFFFFF" fill-rule="nonzero" cx="204.12" cy="99.31" r="3.34"></circle>
                <path d="M220.55,99.31 C220.55,97.9541428 219.732706,96.7319833 218.479669,96.2140584 C217.226632,95.6961334 215.784956,95.9845828 214.827654,96.9447507 C213.870352,97.9049185 213.586214,99.3474504 214.107883,100.598934 C214.629552,101.850417 215.854149,102.664047 217.21,102.660015 C219.056247,102.654489 220.55,101.156256 220.55,99.31 Z" id="Path" stroke="#263238" fill="#92E3A9" fill-rule="nonzero"></path>
                <circle id="Oval" stroke="#263238" fill="#FFFFFF" fill-rule="nonzero" cx="184.62" cy="99.31" r="3.34"></circle>
                <rect id="Rectangle" stroke="#263238" fill="#263238" fill-rule="nonzero" x="105.01" y="113.43" width="115.54" height="9.27"></rect>
                <rect id="Rectangle" stroke="#263238" fill="#FFFFFF" fill-rule="nonzero" x="100.27" y="122.71" width="125.03" height="27.08"></rect>
                <rect id="Rectangle" stroke="#263238" fill="#92E3A9" fill-rule="nonzero" x="137.67" y="129.62" width="7.14" height="13.26"></rect>
                <rect id="Rectangle" stroke="#263238" fill="#92E3A9" fill-rule="nonzero" x="115.77" y="129.62" width="7.14" height="13.26"></rect>
                <rect id="Rectangle" stroke="#263238" fill="#92E3A9" fill-rule="nonzero" x="126.72" y="129.62" width="7.14" height="13.26"></rect>
                <rect id="Rectangle" stroke="#263238" fill="#92E3A9" fill-rule="nonzero" x="106.28" y="129.62" width="5.69" height="13.26"></rect>
                <rect id="Rectangle" stroke="#263238" fill="#92E3A9" fill-rule="nonzero" x="148.61" y="129.62" width="43.83" height="13.26"></rect>
                <circle id="Oval" stroke="#263238" fill="#92E3A9" fill-rule="nonzero" cx="204.12" cy="135.67" r="3.34"></circle>
                <path d="M220.550015,135.67 C220.554044,134.31324 219.739329,133.088012 218.486615,132.566932 C217.233902,132.045853 215.790586,132.331829 214.831207,133.291207 C213.871829,134.250586 213.585853,135.693902 214.106932,136.946615 C214.628012,138.199329 215.85324,139.014044 217.21,139.010015 C219.054631,139.010015 220.550015,137.514631 220.550015,135.67 L220.550015,135.67 Z" id="Path" stroke="#263238" fill="#FFFFFF" fill-rule="nonzero"></path>
                <circle id="Oval" stroke="#263238" fill="#FFFFFF" fill-rule="nonzero" cx="184.62" cy="135.67" r="3.34"></circle>
                <rect id="Rectangle" stroke="#263238" fill="#263238" fill-rule="nonzero" x="105.01" y="149.79" width="115.54" height="9.27"></rect>
                <rect id="Rectangle" stroke="#263238" fill="#FFFFFF" fill-rule="nonzero" x="100.27" y="159.06" width="125.03" height="27.08"></rect>
                <rect id="Rectangle" stroke="#263238" fill="#92E3A9" fill-rule="nonzero" x="115.77" y="165.97" width="7.14" height="13.26"></rect>
                <rect id="Rectangle" stroke="#263238" fill="#92E3A9" fill-rule="nonzero" x="126.72" y="165.97" width="7.14" height="13.26"></rect>
                <rect id="Rectangle" stroke="#263238" fill="#92E3A9" fill-rule="nonzero" x="137.67" y="165.97" width="7.14" height="13.26"></rect>
                <rect id="Rectangle" stroke="#263238" fill="#92E3A9" fill-rule="nonzero" x="106.28" y="165.97" width="5.69" height="13.26"></rect>
                <rect id="Rectangle" stroke="#263238" fill="#92E3A9" fill-rule="nonzero" x="148.61" y="165.97" width="43.83" height="13.26"></rect>
                <circle id="Oval" stroke="#263238" fill="#FFFFFF" fill-rule="nonzero" cx="204.12" cy="172.02" r="3.34"></circle>
                <path d="M220.55,172.02 C220.55,170.664143 219.732706,169.441983 218.479669,168.924058 C217.226632,168.406133 215.784956,168.694583 214.827654,169.654751 C213.870352,170.614919 213.586214,172.05745 214.107883,173.308934 C214.629552,174.560417 215.854149,175.374047 217.21,175.370015 C219.056247,175.364489 220.55,173.866256 220.55,172.02 Z" id="Path" stroke="#263238" fill="#92E3A9" fill-rule="nonzero"></path>
                <circle id="Oval" stroke="#263238" fill="#FFFFFF" fill-rule="nonzero" cx="184.62" cy="172.02" r="3.34"></circle>
            </g>
        </g>
    </g>
</svg>