<svg xmlns="http://www.w3.org/2000/svg" width="79" height="66" fill="none" xmlns:v="https://vecta.io/nano"><path fill-rule="evenodd" d="M5.43084 28.4704L47.8535 10.3281C68.0553 1.9858 72.2531.53664 74.9891.48879c.6018-.01052 1.9473.13754 2.8188.83968.736.59287.9385 1.39376 1.0353 1.95587s.2176 1.84261.1217 2.84315C77.8701 17.5475 73.1332 45.261 70.7233 58.0516c-1.0197 5.4122-3.0275 7.2269-4.9713 7.4045-4.2244.3859-7.4322-2.7718-11.5238-5.4346L37.9942 49.195c-7.1821-4.699-2.5262-7.2816 1.5668-11.5024 1.0712-1.1046 19.6839-17.9128 20.0442-19.4376.045-.1907.0868-.9015-.3385-1.2769s-1.0531-.247-1.5061-.1449c-.6422.1447-10.8701 6.8565-30.6839 20.1354-2.9032 1.9793-5.5328 2.9436-7.8888 2.8931-2.5973-.0557-7.5936-1.4581-11.30774-2.6567-4.5556-1.4703-8.1763-2.2476-7.86102-4.7445.16422-1.3005 1.96812-2.6306 5.4117-3.9901z" fill="#2f2f2f"/></svg>