<svg xmlns="http://www.w3.org/2000/svg" width="78" height="65" viewBox="0 0 70 58" fill="none" xmlns:v="https://vecta.io/nano"><path d="M22.0136 57.4883c26.4152 0 40.8632-21.9315 40.8632-40.9504 0-.6229 0-1.2431-.042-1.8604 2.8107-2.0374 5.237-4.56 7.1652-7.44983-2.6209 1.16449-5.4016 1.92781-8.2488 2.26442 2.9983-1.79848 5.2422-4.62757 6.314-7.96055-2.8191 1.6766-5.9033 2.85808-9.1196 3.49344-2.1654-2.30739-5.0292-3.83529-8.1484-4.34726s-6.3197.02055-9.1065 1.51514-5.0042 3.86792-6.3094 6.75273-1.6251 6.12031-.9105 9.20571c-5.7099-.287-11.2957-1.7741-16.3949-4.3647S8.47806 7.55989 4.872 3.11411C3.03546 6.28251 2.47296 10.0333 3.29904 13.6027s2.97862 6.6891 6.01936 8.7239c-2.28564-.0671-4.52151-.685-6.5184-1.8014v.1824c.00091 3.3229 1.14873 6.5431 3.24879 9.1146S11.0718 34.158 14.322 34.816c-2.1143.578-4.33278.6624-6.4848.2469.91809 2.8596 2.7049 5.3601 5.1106 7.1522s5.31 2.7859 8.307 2.8427c-2.9777 2.3456-6.3876 4.0798-10.0347 5.1034S3.76021 51.4778 0 51.0233c6.56785 4.2236 14.2098 6.464 22.0136 6.4538" fill="#2f2f2f"/></svg>